<?xml version="1.0"?>
<!--Icons from directory ""-->
<svg xmlns="http://www.w3.org/2000/svg" width="24" height="184" viewBox="0 0 24 184"><svg width="24" height="24" id="adjust-bar_light_from" y="0"><g fill="none" fill-rule="evenodd"><path d="M-1140-250H226v768h-1366z"/><path d="M0 0h24v24H0z"/><g transform="translate(1 1)" stroke-linecap="round" stroke-linejoin="round" stroke="#fff"><circle cx="11" cy="11" r="5"/><path d="M11 0v2m0 18v2M3.22 3.22l1.42 1.42m12.72 12.72l1.42 1.42M0 11h2m18 0h2M3.22 18.78l1.42-1.42M17.36 4.64l1.42-1.42"/></g></g></svg><svg width="24" height="24" id="adjust-bar_light_to" y="24"><g fill="none" fill-rule="evenodd"><path d="M-1140-250H226v768h-1366z"/><path d="M0 0h24v24H0z"/><g transform="translate(1 1)" stroke-linecap="round" stroke-linejoin="round" stroke-width="2" stroke="#fff"><circle cx="11" cy="11" r="5"/><path d="M11 0v2m0 18v2M3.22 3.22l1.42 1.42m12.72 12.72l1.42 1.42M0 11h2m18 0h2M3.22 18.78l1.42-1.42M17.36 4.64l1.42-1.42"/></g></g></svg><svg width="24" height="24" id="panel__icon_clock" y="48"><g fill="none" fill-rule="evenodd"><path d="M-925-250H441v768H-925z"/><path d="M0 0h24v24H0z"/><g transform="translate(2 2)" stroke="#000" stroke-linecap="round" stroke-linejoin="round" stroke-width="2"><circle cx="10" cy="10" r="10"/><path opacity=".3" d="M10 4v6l3 3"/></g></g></svg><svg width="24" height="24" id="panel__icon_light_off" y="72"><g fill="none" fill-rule="evenodd"><path d="M-1140-250H226v768h-1366z"/><path d="M0 0h24v24H0z"/><g transform="translate(1 1)" stroke-linecap="round" stroke-linejoin="round" stroke-width="2" stroke="#333"><circle stroke-opacity=".4" cx="11" cy="11" r="5"/><path stroke-opacity=".1" d="M11 0v2m0 18v2M3.22 3.22l1.42 1.42m12.72 12.72l1.42 1.42M0 11h2m18 0h2M3.22 18.78l1.42-1.42M17.36 4.64l1.42-1.42"/></g></g></svg><svg width="24" height="24" id="panel__icon_light_on" y="96"><g fill="none" fill-rule="evenodd"><path d="M-1140-250H226v768h-1366z"/><path d="M0 0h24v24H0z"/><g transform="translate(1 1)" stroke-linecap="round" stroke-linejoin="round" stroke-width="2"><circle stroke="#F5A623" cx="11" cy="11" r="5"/><path d="M11 0v2m0 18v2M3.22 3.22l1.42 1.42m12.72 12.72l1.42 1.42M0 11h2m18 0h2M3.22 18.78l1.42-1.42M17.36 4.64l1.42-1.42" stroke="#FFD93E"/></g></g></svg><svg xmlns:xlink="http://www.w3.org/1999/xlink" width="16" height="16" id="panel__icon_out" y="120"><defs><path d="M8 1c.412 0 .679.168 1.018.508l5.726 5.725a.875.875 0 1 1-1.238 1.238L8 2.964 2.494 8.471a.875.875 0 1 1-1.238-1.238l5.746-5.746C7.335 1.155 7.588 1 8 1zm0 6c.412 0 .679.168 1.018.508l5.726 5.725a.875.875 0 1 1-1.238 1.238L8 8.964l-5.506 5.507a.875.875 0 1 1-1.238-1.238l5.746-5.746C7.335 7.155 7.588 7 8 7z" id="panel__icon_out-a"/></defs><g fill="none" fill-rule="evenodd"><path d="M-540-538H826v768H-540z"/><g opacity=".3"><path d="M0 0h16v16H0z"/><mask id="panel__icon_out-b" fill="#fff"><use xlink:href="#panel__icon_out-a"/></mask><use fill="#000" fill-rule="nonzero" xlink:href="#panel__icon_out-a"/><g mask="url(#panel__icon_out-b)" fill="#333"><path d="M-82-57H98V73H-82z"/></g></g></g></svg><svg width="24" height="24" id="panel__icon_temp_off" y="136"><g fill="none" fill-rule="evenodd"><path d="M0 0h24v24H0z"/><path d="M14 14.76V3.5a2.5 2.5 0 1 0-5 0v11.26a4.5 4.5 0 1 0 5 0z" stroke-opacity=".4" stroke="#333" stroke-width="2" stroke-linecap="round" stroke-linejoin="round"/><circle fill-opacity=".1" fill="#333" fill-rule="nonzero" cx="11.5" cy="18.5" r="3.5"/></g></svg><svg width="24" height="24" id="panel__icon_temp_on" y="160"><g fill="none" fill-rule="evenodd"><path d="M0 0h24v24H0z"/><path d="M14 14.76V3.5a2.5 2.5 0 1 0-5 0v11.26a4.5 4.5 0 1 0 5 0z" stroke="#F5A623" stroke-width="2" stroke-linecap="round" stroke-linejoin="round"/><circle fill="#FFD93E" fill-rule="nonzero" cx="11.5" cy="18.5" r="3.5"/></g></svg></svg>
